<svg xmlns="http://www.w3.org/2000/svg" width="1200" height="630" viewBox="0 0 1200 630" fill="none">
  <defs>
    <linearGradient id="og-bg" x1="0" y1="0" x2="1200" y2="630" gradientUnits="userSpaceOnUse">
      <stop stop-color="#faf7ff"/>
      <stop offset="1" stop-color="#efe6ff"/>
    </linearGradient>
    <linearGradient id="og-mark" x1="120" y1="150" x2="300" y2="330" gradientUnits="userSpaceOnUse">
      <stop stop-color="#7e14ff"/>
      <stop offset="1" stop-color="#a855ff"/>
    </linearGradient>
    <linearGradient id="og-panel" x1="636" y1="150" x2="1116" y2="480" gradientUnits="userSpaceOnUse">
      <stop stop-color="#1b1330"/>
      <stop offset="1" stop-color="#120c20"/>
    </linearGradient>
  </defs>
  <rect width="1200" height="630" fill="url(#og-bg)"/>

  <g transform="translate(80 150) scale(0.34)">
    <rect width="512" height="512" rx="116" fill="url(#og-mark)"/>
    <path transform="translate(31 0) skewX(-7)" d="M148 126 L212 126 L300 280 L300 126 L364 126 L364 386 L300 386 L212 232 L212 386 L148 386 Z" fill="#ffffff"/>
  </g>
  <text x="80" y="400" font-family="'Helvetica Neue', Helvetica, Arial, sans-serif" font-size="86" font-weight="800" letter-spacing="-3" fill="#16121f">Next<tspan fill="#7e14ff">PPT</tspan></text>
  <text x="84" y="458" font-family="'PingFang SC', 'Hiragino Sans GB', sans-serif" font-size="38" font-weight="600" fill="#3a3344">下一代 PPT，从 HTML 开始</text>
  <text x="84" y="503" font-family="'PingFang SC', 'Hiragino Sans GB', sans-serif" font-size="24" font-weight="400" fill="#6b6675">点一下就能改字换图，一键导出能投影的 PPT / PDF</text>

  <g>
    <rect x="636" y="150" width="480" height="330" rx="22" fill="url(#og-panel)" stroke="rgba(126,20,255,0.25)"/>
    <circle cx="668" cy="184" r="5" fill="#ff5f57"/>
    <circle cx="690" cy="184" r="5" fill="#febc2e"/>
    <circle cx="712" cy="184" r="5" fill="#28c840"/>
    <rect x="664" y="208" width="424" height="244" rx="12" fill="#0d0a16" stroke="rgba(255,255,255,0.06)"/>
    <rect x="692" y="242" width="210" height="22" rx="6" fill="url(#og-mark)"/>
    <rect x="684" y="234" width="226" height="38" rx="4" fill="none" stroke="#a855ff" stroke-width="2"/>
    <g fill="#ffffff" stroke="#a855ff" stroke-width="2">
      <circle cx="684" cy="234" r="5"/>
      <circle cx="910" cy="234" r="5"/>
      <circle cx="684" cy="272" r="5"/>
      <circle cx="910" cy="272" r="5"/>
    </g>
    <rect x="692" y="296" width="300" height="12" rx="6" fill="rgba(255,255,255,0.16)"/>
    <rect x="692" y="322" width="252" height="12" rx="6" fill="rgba(255,255,255,0.16)"/>
    <rect x="692" y="348" width="288" height="12" rx="6" fill="rgba(255,255,255,0.16)"/>
    <rect x="692" y="380" width="132" height="52" rx="8" fill="rgba(168,85,255,0.16)" stroke="rgba(168,85,255,0.32)"/>
    <path d="M708 420 L726 400 L742 416 L756 404 L808 420 Z" fill="rgba(168,85,255,0.5)"/>
    <circle cx="754" cy="397" r="6" fill="rgba(168,85,255,0.6)"/>
  </g>
</svg>
