<svg width="720" height="240" viewBox="0 0 720 240" fill="none" xmlns="http://www.w3.org/2000/svg">
  <defs>
    <linearGradient id="flowL" x1="74" y1="80" x2="182" y2="176" gradientUnits="userSpaceOnUse">
      <stop offset="0" stop-color="#5E6AD2"/>
      <stop offset="1" stop-color="#8B93EC"/>
    </linearGradient>
  </defs>

  <rect width="720" height="240" fill="#FFFFFF"/>

  <g transform="translate(46 42) scale(0.609)">
    <rect x="1" y="1" width="254" height="254" rx="60" fill="#F8FAFC" stroke="#E2E8F0" stroke-width="2"/>
    <path d="M74 80C116 84 140 172 182 176" stroke="url(#flowL)" stroke-width="22" stroke-linecap="round"/>
    <path d="M74 176C116 172 140 84 182 80" stroke="url(#flowL)" stroke-width="22" stroke-linecap="round" opacity="0.28"/>
    <circle cx="74" cy="80" r="29" fill="#5E6AD2"/>
    <circle cx="182" cy="80" r="29" fill="#8B93EC"/>
    <circle cx="74" cy="176" r="29" fill="#4C57BD"/>
    <circle cx="182" cy="176" r="29" fill="#6E79DE"/>
    <rect x="97" y="104" width="62" height="49" rx="12" fill="#1C1F2E"/>
    <rect x="110" y="119" width="36" height="6" rx="3" fill="white"/>
    <rect x="110" y="131" width="24" height="6" rx="3" fill="white" opacity="0.7"/>
  </g>

  <text x="245" y="116" font-family="Inter, Geist, Manrope, -apple-system, Arial, sans-serif" font-size="54" font-weight="750" fill="#0F172A">NextPPT</text>
  <text x="248" y="154" font-family="Inter, Geist, Manrope, -apple-system, Arial, sans-serif" font-size="20" font-weight="500" fill="#64748B">Turn AI output into presentations</text>
</svg>
